# xmcd
#
# Track frame offsets: 
#        150
#        15000
#        31447
#        58912
#        77197
#        94635
#        128400
#        144067
#        161077
#
# Disc length: 2393 seconds
#
# Revision: 0
# Processed by: cddbd v1.5.2PL0 Copyright (c) Steve Scherf et al.
# Submitted via: ExactAudioCopy v0.95b4
#
DISCID=61095709
DTITLE=Red Beans - On Your Way Up
DYEAR=1999
DGENRE=
TTITLE0=Hit Me
TTITLE1=The Clock's Gone Crazy
TTITLE2=Blues All Around Me
TTITLE3=Dial Me Up
TTITLE4=Let's Stay Tight
TTITLE5=On Your Way Up
TTITLE6=Everyday I Have The Blues
TTITLE7=GS Blues
TTITLE8=Hold On
EXTD=
EXTT0=
EXTT1=
EXTT2=
EXTT3=
EXTT4=
EXTT5=
EXTT6=
EXTT7=
EXTT8=
PLAYORDER=
